<svg viewBox="0 0 100 100" xmlns="http://www.w3.org/2000/svg">
  <!-- No background rect = transparent background -->
  
  <!-- The Vector Paths -->
  <g transform="translate(50, 50)" fill="none" stroke="#12110F" stroke-width="2" stroke-linecap="round" stroke-linejoin="round">
    <!-- Path 1 (Small right oval) -->
    <path d="M28.0,-1.0 C27.1,-1.6 24.8,-0.2 23.0,2.1 C21.2,4.4 20.6,6.7 21.6,7.2 M21.6,7.2 C22.5,7.8 24.8,6.4 26.6,4.1 C28.4,1.8 29.0,-0.4 28.0,-1.0 Z" />

    <!-- Path 2 (Large full oval) -->
    <path d="M19.0,-12.0 C18.1,-12.6 15.1,-11.2 12.1,-8.5 C9.0,-5.7 7.0,-2.5 8.0,-1.9 L18.0,4.9 C19.0,5.5 22.0,4.1 25.1,1.3 C28.1,-1.4 30.1,-4.6 29.1,-5.2 L19.0,-12.0 Z" />

    <!-- Path 3 (Interlocking path) -->
    <path d="M11.0,-17.0 C10.1,-17.6 7.1,-16.2 4.1,-13.5 C1.0,-10.7 -1.0,-7.5 0.0,-6.9 M0.0,-6.9 L10.0,-0.1 C11.0,0.5 14.0,-0.9 17.1,-3.7 C20.1,-6.4 22.1,-9.6 21.1,-10.2 M21.1,-10.2 L11.0,-17.0 Z M10.0,-0.1 L-0.0,-6.9" />

    <!-- Path 4 (Outer C-shape) -->
    <path d="M-8.0,-14.0 C-8.9,-14.6 -12.9,-11.9 -17.0,-7.8 C-21.1,-3.7 -23.7,0.2 -22.8,0.8 L-12.8,7.6 C-11.9,8.2 -8.9,6.8 -5.8,4.1 C-2.7,1.4 -0.7,-1.8 0.2,-2.4 L-12.8,7.6" />
    
    <!-- Path 5 (Farthest C-shape) -->
    <path d="M-18.0,-9.0 C-18.9,-9.6 -22.9,-6.9 -27.0,-2.8 C-31.1,1.3 -33.7,5.2 -32.8,5.8 L-22.8,12.6 C-21.9,13.2 -17.9,10.5 -13.8,6.4 C-9.7,2.3 -7.1,-1.6 -8.0,-2.2" />
  </g>
</svg>
